<svg height='100px' width='100px'  fill="#410ff8" xmlns="http://www.w3.org/2000/svg" xmlns:xlink="http://www.w3.org/1999/xlink" version="1.1" x="0px" y="0px" viewBox="0 0 90 90" enable-background="new 0 0 90 90" xml:space="preserve"><path fill="#410ff8" d="M74.436,12.792c-7.651-7.651-20.057-7.651-27.708,0c-7.653,7.652-7.653,20.057,0,27.709  c6.792,6.791,17.328,7.549,24.962,2.283l7.517,7.517c1.389,1.39,3.641,1.39,5.031,0c1.389-1.388,1.389-3.642,0-5.03l-7.518-7.518  C81.985,30.119,81.229,19.584,74.436,12.792z M69.607,35.672c-4.985,4.985-13.066,4.985-18.052,0  c-4.986-4.985-4.986-13.068,0-18.053c4.985-4.984,13.066-4.984,18.052,0C74.593,22.604,74.593,30.688,69.607,35.672z"></path><path d="M27.784,65.415c-1.302-1.273-2.038-3.824-2.362-5.251c-4.402-2.091-4.458-9.352-4.434-10.636  c-0.143-1.115,0.239-1.854,0.591-2.284c0.282-0.345,0.622-0.585,0.957-0.75c-0.323-2.792,0.211-7.079,0.282-7.635l0.053-0.23  c0.502-1.548,1.277-2.858,2.145-3.962c-1.81-0.487-4.701-0.91-7.169,0.326c0,0-4.675,2.032-6.164,6.638c0,0-0.679,5.212-0.067,7.179  c0,0-1.763,0.064-1.492,1.76c0,0-0.202,6.637,3.184,8.194l0.474,0.204c0,0,0.771,4.008,2.167,4.754l-0.001,2.039  c0,0-4.009,1.608-6.637,4.487c-3.691,4.043-4.298,10.124-0.792,10.124c2.365,0,4.794,0.002,4.794,0.002s-1.502-4.151,3.504-9.032  S27.784,65.415,27.784,65.415z"></path><path d="M54.52,72.59c-2.867-2.671-10.185-4.352-10.185-4.352v-4.061l0.341-0.368c0.018-0.019,1.957-2.158,2.408-4.419l0.192-0.951  l0.969-0.072c0.102-0.016,1.251-0.201,1.809-1.827l0.036-0.095c1.15-2.643,0.962-7.336,0.186-7.67c-0.434-0.185-0.333-1-0.134-1.802  c-5.861-3.013-10.247-8.485-11.793-15.057c-0.818-0.167-1.751-0.293-2.722-0.293c-1.434,0-2.703,0.271-3.773,0.806l-0.063,0.029  c-0.046,0.02-4.872,2.193-6.443,6.85c-0.286,2.27-0.218,7.184,0.233,8.629c0,0-0.667-0.354-1.064,0.406  c-0.397,0.761-0.59,8.306,2.006,9.501l1.147,0.493l0.128,0.666c0.412,2.134,1.305,4.354,1.874,4.656l0.679,0.364l-0.005,4.297  c0,0-8.354,0.708-11.818,4.993s-2.337,9.634,0.792,9.634c6.438,0,31.728-0.002,34.607-0.002  C58.002,82.947,58.252,76.064,54.52,72.59z"></path></svg>