<svg data-v-423bf9ae="" xmlns="http://www.w3.org/2000/svg" viewBox="0 0 385 90" class="iconLeft"><!----><!----><!----><g data-v-423bf9ae="" id="a5bc4aef-f682-4f05-bf5e-8f0c71bc55ab" fill="#FFFFFF" transform="matrix(4.559270569581267,0,0,4.559270569581267,107.45221851911387,-3.191489377691269)"><path d="M2.23 14.35L2.23 9.76L6.65 9.76L6.65 9.02L2.23 9.02L2.23 5.32L6.97 5.32L6.97 4.58L1.39 4.58L1.39 14.35ZM9.39 5.24C9.77 5.24 9.94 5.03 9.94 4.73L9.94 4.59C9.94 4.30 9.77 4.09 9.39 4.09C9.02 4.09 8.85 4.30 8.85 4.59L8.85 4.73C8.85 5.03 9.02 5.24 9.39 5.24ZM9.00 14.35L9.80 14.35L9.80 7.18L9.00 7.18ZM13.20 14.35L13.20 9.31C13.20 8.25 14.14 7.73 15.15 7.73C16.34 7.73 16.98 8.43 16.98 9.88L16.98 14.35L17.78 14.35L17.78 9.74C17.78 7.99 16.88 7.01 15.36 7.01C14.21 7.01 13.57 7.57 13.24 8.32L13.20 8.32L13.20 7.18L12.40 7.18L12.40 14.35ZM24.92 14.35L25.72 14.35L25.72 3.99L24.92 3.99L24.92 8.33L24.88 8.33C24.53 7.53 23.79 7.01 22.69 7.01C20.86 7.01 19.74 8.40 19.74 10.77C19.74 13.13 20.86 14.52 22.69 14.52C23.79 14.52 24.50 14 24.88 13.20L24.92 13.20ZM22.88 13.80C21.45 13.80 20.59 12.81 20.59 11.27L20.59 10.26C20.59 8.72 21.45 7.73 22.88 7.73C23.98 7.73 24.92 8.39 24.92 9.32L24.92 12.17C24.92 13.17 23.98 13.80 22.88 13.80ZM28.41 14.35L29.22 14.35L29.22 5.66L29.27 5.66L32.65 11.63L36.02 5.66L36.08 5.66L36.08 14.35L36.89 14.35L36.89 4.58L35.78 4.58L32.69 10.08L32.65 10.08L29.55 4.58L28.41 4.58ZM41.68 13.50L41.62 13.50L39.42 7.18L38.58 7.18L41.24 14.56L40.56 16.45L39.35 16.45L39.35 17.15L40.17 17.15C40.89 17.15 41.13 16.97 41.36 16.37L44.67 7.18L43.86 7.18ZM52.09 5.32L52.09 4.58L44.70 4.58L44.70 5.32L47.98 5.32L47.98 14.35L48.82 14.35L48.82 5.32ZM53.76 14.35L56.87 14.35C59.37 14.35 60.82 12.71 60.82 9.46C60.82 6.22 59.37 4.58 56.87 4.58L53.76 4.58ZM54.60 13.61L54.60 5.32L56.88 5.32C58.80 5.32 59.92 6.65 59.92 8.82L59.92 10.11C59.92 12.28 58.80 13.61 56.88 13.61Z"></path></g><!----><g data-v-423bf9ae="" id="6023dd90-7d49-4f6a-be2d-8b5f79f46c19" transform="matrix(1.1858763411312554,0,0,1.1858763411312554,-7.045512624497505,-8.311125248345206)" stroke="none" fill="#FFFFFF"><path d="M74.436 12.792c-7.651-7.651-20.057-7.651-27.708 0-7.653 7.652-7.653 20.057 0 27.709 6.792 6.791 17.328 7.549 24.962 2.283l7.517 7.517a3.557 3.557 0 1 0 5.031-5.03l-7.518-7.518c5.265-7.634 4.509-18.169-2.284-24.961zm-4.829 22.88c-4.985 4.985-13.066 4.985-18.052 0-4.986-4.985-4.986-13.068 0-18.053 4.985-4.984 13.066-4.984 18.052 0 4.986 4.985 4.986 13.069 0 18.053zM27.784 65.415c-1.302-1.273-2.038-3.824-2.362-5.251-4.402-2.091-4.458-9.352-4.434-10.636-.143-1.115.239-1.854.591-2.284.282-.345.622-.585.957-.75-.323-2.792.211-7.079.282-7.635l.053-.23c.502-1.548 1.277-2.858 2.145-3.962-1.81-.487-4.701-.91-7.169.326 0 0-4.675 2.032-6.164 6.638 0 0-.679 5.212-.067 7.179 0 0-1.763.064-1.492 1.76 0 0-.202 6.637 3.184 8.194l.474.204s.771 4.008 2.167 4.754l-.001 2.039s-4.009 1.608-6.637 4.487c-3.691 4.043-4.298 10.124-.792 10.124l4.794.002s-1.502-4.151 3.504-9.032 10.967-5.927 10.967-5.927z"></path><path d="M54.52 72.59c-2.867-2.671-10.185-4.352-10.185-4.352v-4.061l.341-.368c.018-.019 1.957-2.158 2.408-4.419l.192-.951.969-.072c.102-.016 1.251-.201 1.809-1.827l.036-.095c1.15-2.643.962-7.336.186-7.67-.434-.185-.333-1-.134-1.802-5.861-3.013-10.247-8.485-11.793-15.057a13.712 13.712 0 0 0-2.722-.293c-1.434 0-2.703.271-3.773.806l-.063.029c-.046.02-4.872 2.193-6.443 6.85-.286 2.27-.218 7.184.233 8.629 0 0-.667-.354-1.064.406-.397.761-.59 8.306 2.006 9.501l1.147.493.128.666c.412 2.134 1.305 4.354 1.874 4.656l.679.364-.005 4.297s-8.354.708-11.818 4.993-2.337 9.634.792 9.634l34.607-.002c4.075.002 4.325-6.881.593-10.355z"></path></g><!----></svg>